<svg width="41" height="40" viewBox="0 0 41 40" fill="none" xmlns="http://www.w3.org/2000/svg">
<path d="M20.8337 14.9999C19.2225 14.9999 17.8475 14.4305 16.7087 13.2916C15.5698 12.1527 15.0003 10.7777 15.0003 9.16658C15.0003 7.55547 15.5698 6.18047 16.7087 5.04159C17.8475 3.9027 19.2225 3.33325 20.8337 3.33325C22.4448 3.33325 23.8198 3.9027 24.9587 5.04159C26.0975 6.18047 26.667 7.55547 26.667 9.16658C26.667 10.7777 26.0975 12.1527 24.9587 13.2916C23.8198 14.4305 22.4448 14.9999 20.8337 14.9999ZM20.8337 11.6666C21.5281 11.6666 22.1187 11.4238 22.6053 10.9383C23.092 10.4527 23.3348 9.86214 23.3337 9.16658C23.3325 8.47103 23.0898 7.88103 22.6053 7.39659C22.1209 6.91214 21.5303 6.66881 20.8337 6.66659C20.137 6.66436 19.547 6.9077 19.0637 7.39659C18.5803 7.88547 18.337 8.47547 18.3337 9.16658C18.3303 9.8577 18.5737 10.4483 19.0637 10.9383C19.5537 11.4283 20.1437 11.671 20.8337 11.6666ZM18.4587 34.2916L10.8337 26.6666C10.2781 26.111 9.86144 25.486 9.58366 24.7916C9.30588 24.0971 9.16699 23.3333 9.16699 22.4999C9.16699 20.861 9.72977 19.4788 10.8553 18.3533C11.9809 17.2277 13.3625 16.6655 15.0003 16.6666C15.8059 16.6666 16.5492 16.8194 17.2303 17.1249C17.9114 17.4305 18.5292 17.861 19.0837 18.4166L20.8337 20.1666L22.5837 18.4166C23.1392 17.861 23.7575 17.4305 24.4387 17.1249C25.1198 16.8194 25.8625 16.6666 26.667 16.6666C28.3059 16.6666 29.6881 17.2294 30.8137 18.3549C31.9392 19.4805 32.5014 20.8621 32.5003 22.4999C32.5003 23.3333 32.3614 24.0971 32.0837 24.7916C31.8059 25.486 31.3892 26.111 30.8337 26.6666L23.2087 34.2916C22.8753 34.6249 22.5003 34.8749 22.0837 35.0416C21.667 35.2083 21.2503 35.2916 20.8337 35.2916C20.417 35.2916 20.0003 35.2083 19.5837 35.0416C19.167 34.8749 18.792 34.6249 18.4587 34.2916ZM20.8337 31.9166L28.417 24.3333C28.667 24.0833 28.8548 23.7988 28.9803 23.4799C29.1059 23.161 29.1681 22.8344 29.167 22.4999C29.167 21.8333 28.9309 21.2499 28.4587 20.7499C27.9864 20.2499 27.3892 19.9999 26.667 19.9999C26.3337 19.9999 26.0353 20.0488 25.772 20.1466C25.5087 20.2444 25.2514 20.4177 25.0003 20.6666L20.8337 24.8333L16.667 20.6666C16.5003 20.4999 16.2853 20.3471 16.022 20.2083C15.7587 20.0694 15.4181 19.9999 15.0003 19.9999C14.2781 19.9999 13.6809 20.2499 13.2087 20.7499C12.7364 21.2499 12.5003 21.8333 12.5003 22.4999C12.5003 22.8333 12.5698 23.146 12.7087 23.4383C12.8475 23.7305 13.0281 24.001 13.2503 24.2499L20.8337 31.9166Z" fill="white"/>
</svg>
